<svg width="30" height="30" viewBox="0 0 30 30" fill="none" xmlns="http://www.w3.org/2000/svg">
<path d="M5 14.6571C5 14.1825 5.35269 13.7903 5.81029 13.7282L5.9375 13.7196L22.4175 13.7204L16.4638 7.79096C16.0969 7.42563 16.0956 6.83204 16.4609 6.46513C16.793 6.13158 17.3138 6.10021 17.6814 6.37173L17.7867 6.46228L25.3492 13.9923C25.3976 14.0404 25.4396 14.0926 25.4753 14.1476C25.4853 14.1642 25.4956 14.1811 25.5053 14.1984C25.5142 14.2132 25.5223 14.2286 25.5299 14.2442C25.5405 14.2668 25.5509 14.2902 25.5602 14.314C25.5679 14.3324 25.5742 14.3503 25.5801 14.3684C25.587 14.3907 25.5937 14.4146 25.5994 14.4388C25.6037 14.4557 25.6071 14.4719 25.6101 14.4883C25.6143 14.5125 25.6178 14.5377 25.6203 14.5631C25.6225 14.5825 25.6238 14.6017 25.6246 14.621C25.6248 14.6326 25.625 14.6448 25.625 14.6571L25.6245 14.6934C25.6238 14.7118 25.6226 14.7302 25.6208 14.7486L25.625 14.6571C25.625 14.7163 25.6195 14.7742 25.609 14.8303C25.6066 14.8437 25.6037 14.8574 25.6005 14.8711C25.5938 14.8994 25.5862 14.9265 25.5773 14.9532C25.5729 14.9664 25.5679 14.9806 25.5625 14.9946C25.5515 15.0228 25.5396 15.0497 25.5265 15.0759C25.5204 15.0882 25.5136 15.1011 25.5065 15.1139C25.4947 15.1347 25.4827 15.1545 25.4699 15.1738C25.4609 15.1874 25.4509 15.2016 25.4405 15.2156L25.4324 15.2264C25.4072 15.2594 25.3797 15.2907 25.3504 15.32L25.3493 15.3209L17.7868 22.8521C17.4199 23.2175 16.8263 23.2163 16.461 22.8494C16.1288 22.5159 16.0996 21.995 16.3727 21.6285L16.4637 21.5236L22.415 15.5954L5.9375 15.5946C5.41973 15.5946 5 15.1749 5 14.6571Z" fill="#CC2D2D"/>
</svg>
